#!OML:ASF E:\motion texture\Top Level 1\Subject 1\Session 1\male.ASF
:FULLY-SPECIFIED
:DEGREES
313
root 12.4136 17.8375 5.01382 139.997 -84.9073 -134.445
lowerback -4.31094 1.40613 2.09826
upperback -4.68437 1.71868 2.00056
thorax -2.40275 0.773482 0.921262
lowerneck -6.5668 -0.81007 -7.03629
upperneck -12.7 -0.366962 10.258
head -2.62396 -0.34334 4.31063
rclavicle -2.48481e-015 1.21259e-014
rhumerus 30.6637 -2.1051 -78.472
rradius 104.908
rwrist -25.9536
rhand -14.1062 -30.4574
rfingers 7.12502
rthumb 12.0267 -60.0918
lclavicle -2.48481e-015 1.21259e-014
lhumerus 50.0505 13.4085 72.3166
lradius 50.1883
lwrist 0.488731
lhand -26.1245 34.9488
lfingers 7.12502
lthumb 0.425488 64.9281
rfemur -8.18393 -1.07352 22.1564
rtibia 48.6488
rfoot 4.04083 -6.20141
rtoes 1.39643
lfemur -19.6516 -3.27658 -15.3067
ltibia 19.8184
lfoot -4.11144 7.85709
ltoes 0.586607
314
root 12.2726 17.8455 5.03147 139.823 -85.2106 -134.384
lowerback -4.25478 1.38978 1.90496
upperback -4.66306 1.70544 1.95446
thorax -2.41588 0.773162 0.980337
lowerneck -6.37421 -0.740909 -7.04279
upperneck -13.1331 -0.271445 10.2347
head -2.79258 -0.309865 4.31208
rclavicle -5.69021e-015 1.45113e-014
rhumerus 30.5842 -1.7587 -78.1975
rradius 104.465
rwrist -25.7523
rhand -14.0652 -30.5575
rfingers 7.12502
rthumb 12.0662 -60.1896
lclavicle -5.69021e-015 1.45113e-014
lhumerus 50.1579 13.5773 72.1989
lradius 50.1878
lwrist 0.741903
lhand -25.8345 34.8394
lfingers 7.12502
lthumb 0.705574 64.818
rfemur -9.07383 -1.48763 21.8096
rtibia 49.9697
rfoot 4.5782 -6.72644
rtoes 1.83134
lfemur -19.0372 -3.41993 -15.7569
ltibia 19.8196
lfoot -4.3967 7.63793
ltoes 0.766258
315
root 12.133 17.8535 5.04854 139.454 -85.5212 -134.123
lowerback -4.19412 1.37199 1.71474
upperback -4.64076 1.69011 1.91182
thorax -2.43051 0.771734 1.04118
lowerneck -6.19257 -0.674202 -7.04832
upperneck -13.5429 -0.180117 10.2064
head -2.95251 -0.277428 4.31138
rclavicle 2.93207e-015 1.68967e-014
rhumerus 30.522 -1.39255 -77.9423
rradius 103.993
rwrist -25.5544
rhand -14.007 -30.6433
rfingers 7.12502
rthumb 12.1223 -60.2722
lclavicle 2.93207e-015 1.68967e-014
lhumerus 50.2653 13.7203 72.1024
lradius 50.1962
lwrist 0.995617
lhand -25.5435 34.7375
lfingers 7.12502
lthumb 0.986599 64.715
rfemur -9.98761 -1.91319 21.4825
rtibia 51.2345
rfoot 5.02467 -7.26004
rtoes 2.25267
lfemur -18.418 -3.56143 -16.1954
ltibia 19.7983
lfoot -4.69846 7.42336
ltoes 0.910957
316
root 11.995 17.8613 5.06496 138.826 -85.8365 -133.597
lowerback -4.12786 1.35317 1.53009
upperback -4.61788 1.67318 1.87329
thorax -2.44763 0.76937 1.10304
lowerneck -6.01817 -0.61088 -7.05336
upperneck -13.9378 -0.0941835 10.1729
head -3.1067 -0.246871 4.30873
rclavicle -7.7526e-015 1.78906e-015
rhumerus 30.4795 -1.00946 -77.705
rradius 103.495
rwrist -25.3653
rhand -13.936 -30.7278
rfingers 7.12502
rthumb 12.1908 -60.3526
lclavicle -7.7526e-015 1.78906e-015
lhumerus 50.3726 13.837 72.0244
lradius 50.213
lwrist 1.24651
lhand -25.2582 34.641
lfingers 7.12502
lthumb 1.26222 64.617
rfemur -10.921 -2.3482 21.1787
rtibia 52.4337
rfoot 5.3787 -7.80258
rtoes 2.67194
lfemur -17.7954 -3.6992 -16.6182
ltibia 19.7528
lfoot -5.0099 7.2109
ltoes 1.01892
317
root 11.8584 17.8689 5.08069 137.889 -86.1555 -132.756
lowerback -4.05738 1.33367 1.35069
upperback -4.59498 1.65507 1.83841
thorax -2.46701 0.76627 1.16566
lowerneck -5.85232 -0.550437 -7.05847
upperneck -14.3127 -0.0128003 10.1365
head -3.25343 -0.217631 4.3048
rclavicle 4.64659e-015 -2.48481e-014
rhumerus 30.4574 -0.611728 -77.4856
rradius 102.969
rwrist -25.1878
rhand -13.8506 -30.8068
rfingers 7.12502
rthumb 12.2732 -60.4267
lclavicle 4.64659e-015 -2.48481e-014
lhumerus 50.4775 13.9266 71.9586
lradius 50.24
lwrist 1.49902
lhand -24.9737 34.552
lfingers 7.12502
lthumb 1.53701 64.5262
rfemur -11.8711 -2.79114 20.8977
rtibia 53.56
rfoot 5.6405 -8.35223
rtoes 3.0805
lfemur -17.1709 -3.83224 -17.0255
ltibia 19.6853
lfoot -5.32884 6.99788
ltoes 1.09709
318
root 11.7233 17.8763 5.09571 136.555 -86.4758 -131.513
lowerback -3.98549 1.31393 1.17803
upperback -4.57087 1.63621 1.80704
thorax -2.48581 0.762635 1.22815
lowerneck -5.69388 -0.493066 -7.06185
upperneck -14.6695 0.0635845 10.0954
head -3.39342 -0.190021 4.29879
rclavicle -2.31336e-014 -8.74653e-015
rhumerus 30.4582 -0.202296 -77.2836
rradius 102.416
rwrist -25.0243
rhand -13.7521 -30.8791
rfingers 7.12502
rthumb 12.3682 -60.4932
lclavicle -2.31336e-014 -8.74653e-015
lhumerus 50.5838 13.989 71.9032
lradius 50.2739
lwrist 1.75309
lhand -24.6927 34.4676
lfingers 7.12502
lthumb 1.8084 64.4397
rfemur -12.8343 -3.24022 20.6408
rtibia 54.6055
rfoot 5.80824 -8.90833
rtoes 3.46959
lfemur -16.5451 -3.96065 -17.4157
ltibia 19.5961
lfoot -5.65001 6.78568
ltoes 1.13614
319
root 11.5896 17.8835 5.11 134.698 -86.7946 -129.74
lowerback -3.91008 1.29368 1.01307
upperback -4.54773 1.61631 1.78007
thorax -2.50746 0.758259 1.29083
lowerneck -5.5444 -0.438526 -7.06486
upperneck -15.0048 0.135393 10.0503
head -3.5254 -0.163647 4.29106
rclavicle 5.09386e-015 0
rhumerus 30.4816 0.219002 -77.0983
rradius 101.836
rwrist -24.8768
rhand -13.6396 -30.9468
rfingers 7.12502
rthumb 12.4766 -60.5544
lclavicle 5.09386e-015 0
lhumerus 50.6892 14.0268 71.8618
lradius 50.3176
lwrist 2.00196
lhand -24.4152 34.3864
lfingers 7.12502
lthumb 2.07634 64.356
rfemur -13.807 -3.69355 20.4093
rtibia 55.5622
rfoot 5.88504 -9.47071
rtoes 3.84835
lfemur -15.921 -4.08326 -17.7866
ltibia 19.4887
lfoot -5.9686 6.57469
ltoes 1.13456
320
root 11.4574 17.8903 5.12354 132.153 -87.1092 -127.271
lowerback -3.83159 1.27378 0.855846
upperback -4.52525 1.5965 1.75663
thorax -2.53138 0.753714 1.3528
lowerneck -5.40177 -0.387329 -7.06589
upperneck -15.3206 0.201921 10.0014
head -3.65023 -0.139025 4.28143
rclavicle -9.44227e-016 9.93923e-016
rhumerus 30.5272 0.647533 -76.9286
rradius 101.23
rwrist -24.7466
rhand -13.5096 -31.0042
rfingers 7.12502
rthumb 12.6019 -60.6041
lclavicle -9.44227e-016 9.93923e-016
lhumerus 50.7949 14.037 71.8282
lradius 50.3668
lwrist 2.24996
lhand -24.1415 34.306
lfingers 7.12502
lthumb 2.34066 64.2729
rfemur -14.7841 -4.14941 20.2028
rtibia 56.4229
rfoot 5.8722 -10.039
rtoes 4.22035
lfemur -15.2988 -4.19992 -18.1384
ltibia 19.3649
lfoot -6.2829 6.36442
ltoes 1.10842
321
root 11.3266 17.8968 5.1363 128.716 -87.4148 -123.902
lowerback -3.75504 1.25425 0.70708
upperback -4.50135 1.57666 1.73644
thorax -2.55257 0.748938 1.41349
lowerneck -5.26951 -0.339323 -7.06574
upperneck -15.6166 0.263563 9.94957
head -3.76718 -0.115899 4.27031
rclavicle -8.39865e-015 -1.61016e-014
rhumerus 30.5997 1.08234 -76.7739
rradius 100.599
rwrist -24.6361
rhand -13.3664 -31.0579
rfingers 7.12502
rthumb 12.7399 -60.6493
lclavicle -8.39865e-015 -1.61016e-014
lhumerus 50.9055 14.0235 71.8062
lradius 50.4232
lwrist 2.48933
lhand -23.8667 34.2265
lfingers 7.12502
lthumb 2.60611 64.1904
rfemur -15.764 -4.60489 20.0207
rtibia 57.1812
rfoot 5.77431 -10.6106
rtoes 4.58536
lfemur -14.6816 -4.30936 -18.4706
ltibia 19.2272
lfoot -6.59355 6.15534
ltoes 1.05221
322
root 11.1972 17.903 5.14827 124.062 -87.706 -119.309
lowerback -3.67549 1.23529 0.56591
upperback -4.47935 1.55722 1.71962
thorax -2.57726 0.744147 1.47339
lowerneck -5.14596 -0.295001 -7.06552
upperneck -15.8902 0.319804 9.89613
head -3.87568 -0.0944619 4.25825
rclavicle -5.2181e-016 -3.97569e-016
rhumerus 30.6946 1.52069 -76.6336
rradius 99.9449
rwrist -24.5472
rhand -13.2047 -31.112
rfingers 7.12502
rthumb 12.8959 -60.6935
lclavicle -5.2181e-016 -3.97569e-016
lhumerus 51.0162 13.9841 71.7902
lradius 50.4846
lwrist 2.72249
lhand -23.5947 34.1465
lfingers 7.12502
lthumb 2.86874 64.107
rfemur -16.7417 -5.05873 19.8623
rtibia 57.8306
rfoot 5.59362 -11.1875
rtoes 4.95316
lfemur -14.0705 -4.41271 -18.7833
ltibia 19.0776
lfoot -6.90146 5.94733
ltoes 0.972467
323
root 11.0691 17.9088 5.15941 117.785 -87.9737 -113.083
lowerback -3.58995 1.2174 0.432789
upperback -4.46278 1.53883 1.70504
thorax -2.61078 0.739609 1.53099
lowerneck -5.0276 -0.254471 -7.06292
upperneck -16.1405 0.370345 9.84037
head -3.97594 -0.0749663 4.24463
rclavicle 1.11816e-015 -3.97569e-016
rhumerus 30.806 1.96234 -76.5071
rradius 99.2673
rwrist -24.4752
rhand -13.0288 -31.1596
rfingers 7.12502
rthumb 13.0655 -60.7303
lclavicle 1.11816e-015 -3.97569e-016
lhumerus 51.1227 13.9167 71.7783
lradius 50.5517
lwrist 2.94854
lhand -23.3264 34.0642
lfingers 7.12502
lthumb 3.12785 64.021
rfemur -17.714 -5.50838 19.7263
rtibia 58.3654
rfoot 5.33266 -11.766
rtoes 5.31597
lfemur -13.4678 -4.50971 -19.0762
ltibia 18.9179
lfoot -7.20438 5.73957
ltoes 0.867449
324
root 10.9423 17.9142 5.16968 109.397 -88.2055 -104.738
lowerback -3.50964 1.19977 0.305557
upperback -4.4436 1.52034 1.69313
thorax -2.63853 0.734897 1.58821
lowerneck -4.91987 -0.21732 -7.06006
upperneck -16.3727 0.416056 9.78327
head -4.06872 -0.0570206 4.2302
rclavicle -1.20265e-014 1.15295e-014
rhumerus 30.9466 2.40489 -76.3933
rradius 98.5669
rwrist -24.4178
rhand -12.8428 -31.2096
rfingers 7.12502
rthumb 13.2448 -60.7688
lclavicle -1.20265e-014 1.15295e-014
lhumerus 51.2366 13.8276 71.7742
lradius 50.6239
lwrist 3.16513
lhand -23.0598 33.9809
lfingers 7.12502
lthumb 3.38533 63.9338
rfemur -18.6774 -5.95232 19.6106
rtibia 58.7803
rfoot 4.99848 -12.3445
rtoes 5.67672
lfemur -12.8751 -4.60034 -19.3507
ltibia 18.7506
lfoot -7.50271 5.53069
ltoes 0.741083
325
root 10.8168 17.9193 5.17908 98.5052 -88.3829 -93.8786
lowerback -3.42698 1.18294 0.183834
upperback -4.42767 1.50259 1.68256
thorax -2.67085 0.730381 1.64373
lowerneck -4.82005 -0.184216 -7.05487
upperneck -16.5833 0.455881 9.72404
head -4.15324 -0.0411494 4.2143
rclavicle 3.72721e-016 1.07344e-014
rhumerus 31.1065 2.84673 -76.2918
rradius 97.8453
rwrist -24.3755
rhand -12.6448 -31.2623
rfingers 7.12502
rthumb 13.4356 -60.809
lclavicle 3.72721e-016 1.07344e-014
lhumerus 51.3505 13.7136 71.7753
lradius 50.701
lwrist 3.36979
lhand -22.7939 33.8945
lfingers 7.12502
lthumb 3.64214 63.8432
rfemur -19.6281 -6.38947 19.5124
rtibia 59.0713
rfoot 4.59472 -12.9205
rtoes 6.04083
lfemur -12.2946 -4.68332 -19.6081
ltibia 18.5787
lfoot -7.79816 5.31942
ltoes 0.593967
326
root 10.6924 17.9239 5.18756 85.2669 -88.4821 -80.6638
lowerback -3.34776 1.16693 0.066759
upperback -4.41174 1.48554 1.67388
thorax -2.70116 0.726094 1.69872
lowerneck -4.72867 -0.155134 -7.04915
upperneck -16.775 0.490054 9.6637
head -4.23024 -0.0272679 4.19762
rclavicle 8.49804e-015 1.94809e-014
rhumerus 31.29 3.28641 -76.2007
rradius 97.1032
rwrist -24.3465
rhand -12.4398 -31.3175
rfingers 7.12502
rthumb 13.6331 -60.851
lclavicle 8.49804e-015 1.94809e-014
lhumerus 51.4684 13.5769 71.7833
lradius 50.7829
lwrist 3.56414
lhand -22.5301 33.8039
lfingers 7.12502
lthumb 3.89688 63.7481
rfemur -20.5626 -6.81788 19.4312
rtibia 59.2346
rfoot 4.12919 -13.4907
rtoes 6.40109
lfemur -11.7263 -4.75928 -19.8479
ltibia 18.4024
lfoot -8.0893 5.10559
ltoes 0.42799
